<mxfile host="Electron" modified="2024-01-31T09:09:02.041Z" agent="Mozilla/5.0 (Windows NT 10.0; Win64; x64) AppleWebKit/537.36 (KHTML, like Gecko) draw.io/23.0.2 Chrome/120.0.6099.109 Electron/28.1.0 Safari/537.36" etag="1LGW3q7o1G7vryZF0LO-" version="23.0.2" type="device">
  <diagram name="第 1 页" id="LrFKo9qw-IPXYTI4SMDs">
    <mxGraphModel dx="1910" dy="2058" grid="1" gridSize="10" guides="1" tooltips="1" connect="1" arrows="1" fold="1" page="1" pageScale="1" pageWidth="827" pageHeight="1169" math="0" shadow="0">
      <root>
        <mxCell id="0" />
        <mxCell id="1" parent="0" />
        <mxCell id="cV-6C2v09F7NOIxWOnw--56" value="" style="group" vertex="1" connectable="0" parent="1">
          <mxGeometry x="205" y="609" width="365" height="191" as="geometry" />
        </mxCell>
        <mxCell id="cV-6C2v09F7NOIxWOnw--30" value="38" style="ellipse;whiteSpace=wrap;html=1;fontFamily=Times New Roman;fontSize=19;fontColor=default;" vertex="1" parent="cV-6C2v09F7NOIxWOnw--56">
          <mxGeometry x="325" y="151" width="40" height="40" as="geometry" />
        </mxCell>
        <mxCell id="cV-6C2v09F7NOIxWOnw--31" value="31" style="ellipse;whiteSpace=wrap;html=1;fontFamily=Times New Roman;fontSize=19;fontColor=default;" vertex="1" parent="cV-6C2v09F7NOIxWOnw--56">
          <mxGeometry x="275" y="151" width="40" height="40" as="geometry" />
        </mxCell>
        <mxCell id="cV-6C2v09F7NOIxWOnw--53" style="edgeStyle=none;shape=connector;rounded=0;orthogonalLoop=1;jettySize=auto;html=1;exitX=0;exitY=1;exitDx=0;exitDy=0;entryX=0.5;entryY=0;entryDx=0;entryDy=0;labelBackgroundColor=default;strokeColor=default;align=center;verticalAlign=middle;fontFamily=Helvetica;fontSize=11;fontColor=default;endArrow=none;endFill=0;" edge="1" parent="cV-6C2v09F7NOIxWOnw--56" source="cV-6C2v09F7NOIxWOnw--32" target="cV-6C2v09F7NOIxWOnw--31">
          <mxGeometry relative="1" as="geometry" />
        </mxCell>
        <mxCell id="cV-6C2v09F7NOIxWOnw--54" style="edgeStyle=none;shape=connector;rounded=0;orthogonalLoop=1;jettySize=auto;html=1;exitX=1;exitY=1;exitDx=0;exitDy=0;entryX=0.5;entryY=0;entryDx=0;entryDy=0;labelBackgroundColor=default;strokeColor=default;align=center;verticalAlign=middle;fontFamily=Helvetica;fontSize=11;fontColor=default;endArrow=none;endFill=0;" edge="1" parent="cV-6C2v09F7NOIxWOnw--56" source="cV-6C2v09F7NOIxWOnw--32" target="cV-6C2v09F7NOIxWOnw--30">
          <mxGeometry relative="1" as="geometry" />
        </mxCell>
        <mxCell id="cV-6C2v09F7NOIxWOnw--32" value="35" style="ellipse;whiteSpace=wrap;html=1;fontFamily=Times New Roman;fontSize=19;fontColor=default;" vertex="1" parent="cV-6C2v09F7NOIxWOnw--56">
          <mxGeometry x="300" y="101" width="40" height="40" as="geometry" />
        </mxCell>
        <mxCell id="cV-6C2v09F7NOIxWOnw--33" value="27" style="ellipse;whiteSpace=wrap;html=1;fontFamily=Times New Roman;fontSize=19;fontColor=default;" vertex="1" parent="cV-6C2v09F7NOIxWOnw--56">
          <mxGeometry x="225" y="151" width="40" height="40" as="geometry" />
        </mxCell>
        <mxCell id="cV-6C2v09F7NOIxWOnw--34" value="24" style="ellipse;whiteSpace=wrap;html=1;fontFamily=Times New Roman;fontSize=19;fontColor=default;" vertex="1" parent="cV-6C2v09F7NOIxWOnw--56">
          <mxGeometry x="175" y="151" width="40" height="40" as="geometry" />
        </mxCell>
        <mxCell id="cV-6C2v09F7NOIxWOnw--51" style="edgeStyle=none;shape=connector;rounded=0;orthogonalLoop=1;jettySize=auto;html=1;exitX=0;exitY=1;exitDx=0;exitDy=0;entryX=0.5;entryY=0;entryDx=0;entryDy=0;labelBackgroundColor=default;strokeColor=default;align=center;verticalAlign=middle;fontFamily=Helvetica;fontSize=11;fontColor=default;endArrow=none;endFill=0;" edge="1" parent="cV-6C2v09F7NOIxWOnw--56" source="cV-6C2v09F7NOIxWOnw--35" target="cV-6C2v09F7NOIxWOnw--34">
          <mxGeometry relative="1" as="geometry" />
        </mxCell>
        <mxCell id="cV-6C2v09F7NOIxWOnw--52" style="edgeStyle=none;shape=connector;rounded=0;orthogonalLoop=1;jettySize=auto;html=1;exitX=1;exitY=1;exitDx=0;exitDy=0;entryX=0.5;entryY=0;entryDx=0;entryDy=0;labelBackgroundColor=default;strokeColor=default;align=center;verticalAlign=middle;fontFamily=Helvetica;fontSize=11;fontColor=default;endArrow=none;endFill=0;" edge="1" parent="cV-6C2v09F7NOIxWOnw--56" source="cV-6C2v09F7NOIxWOnw--35" target="cV-6C2v09F7NOIxWOnw--33">
          <mxGeometry relative="1" as="geometry" />
        </mxCell>
        <mxCell id="cV-6C2v09F7NOIxWOnw--35" value="26" style="ellipse;whiteSpace=wrap;html=1;fontFamily=Times New Roman;fontSize=19;fontColor=default;" vertex="1" parent="cV-6C2v09F7NOIxWOnw--56">
          <mxGeometry x="200" y="101" width="40" height="40" as="geometry" />
        </mxCell>
        <mxCell id="cV-6C2v09F7NOIxWOnw--49" style="edgeStyle=none;shape=connector;rounded=0;orthogonalLoop=1;jettySize=auto;html=1;exitX=0;exitY=1;exitDx=0;exitDy=0;entryX=1;entryY=0;entryDx=0;entryDy=0;labelBackgroundColor=default;strokeColor=default;align=center;verticalAlign=middle;fontFamily=Helvetica;fontSize=11;fontColor=default;endArrow=none;endFill=0;" edge="1" parent="cV-6C2v09F7NOIxWOnw--56" source="cV-6C2v09F7NOIxWOnw--36" target="cV-6C2v09F7NOIxWOnw--35">
          <mxGeometry relative="1" as="geometry" />
        </mxCell>
        <mxCell id="cV-6C2v09F7NOIxWOnw--50" style="edgeStyle=none;shape=connector;rounded=0;orthogonalLoop=1;jettySize=auto;html=1;exitX=1;exitY=1;exitDx=0;exitDy=0;entryX=0;entryY=0;entryDx=0;entryDy=0;labelBackgroundColor=default;strokeColor=default;align=center;verticalAlign=middle;fontFamily=Helvetica;fontSize=11;fontColor=default;endArrow=none;endFill=0;" edge="1" parent="cV-6C2v09F7NOIxWOnw--56" source="cV-6C2v09F7NOIxWOnw--36" target="cV-6C2v09F7NOIxWOnw--32">
          <mxGeometry relative="1" as="geometry" />
        </mxCell>
        <mxCell id="cV-6C2v09F7NOIxWOnw--36" value="29" style="ellipse;whiteSpace=wrap;html=1;fontFamily=Times New Roman;fontSize=19;fontColor=default;" vertex="1" parent="cV-6C2v09F7NOIxWOnw--56">
          <mxGeometry x="250" y="50" width="40" height="40" as="geometry" />
        </mxCell>
        <mxCell id="cV-6C2v09F7NOIxWOnw--39" value="17" style="ellipse;whiteSpace=wrap;html=1;fontFamily=Times New Roman;fontSize=19;fontColor=default;" vertex="1" parent="cV-6C2v09F7NOIxWOnw--56">
          <mxGeometry x="100" y="101.5" width="40" height="40" as="geometry" />
        </mxCell>
        <mxCell id="cV-6C2v09F7NOIxWOnw--42" value="6" style="ellipse;whiteSpace=wrap;html=1;fontFamily=Times New Roman;fontSize=19;fontColor=default;" vertex="1" parent="cV-6C2v09F7NOIxWOnw--56">
          <mxGeometry y="101.5" width="40" height="40" as="geometry" />
        </mxCell>
        <mxCell id="cV-6C2v09F7NOIxWOnw--45" style="edgeStyle=none;shape=connector;rounded=0;orthogonalLoop=1;jettySize=auto;html=1;exitX=0;exitY=1;exitDx=0;exitDy=0;entryX=1;entryY=0;entryDx=0;entryDy=0;labelBackgroundColor=default;strokeColor=default;align=center;verticalAlign=middle;fontFamily=Helvetica;fontSize=11;fontColor=default;endArrow=none;endFill=0;" edge="1" parent="cV-6C2v09F7NOIxWOnw--56" source="cV-6C2v09F7NOIxWOnw--43" target="cV-6C2v09F7NOIxWOnw--42">
          <mxGeometry relative="1" as="geometry" />
        </mxCell>
        <mxCell id="cV-6C2v09F7NOIxWOnw--46" style="edgeStyle=none;shape=connector;rounded=0;orthogonalLoop=1;jettySize=auto;html=1;exitX=1;exitY=1;exitDx=0;exitDy=0;labelBackgroundColor=default;strokeColor=default;align=center;verticalAlign=middle;fontFamily=Helvetica;fontSize=11;fontColor=default;endArrow=none;endFill=0;" edge="1" parent="cV-6C2v09F7NOIxWOnw--56" source="cV-6C2v09F7NOIxWOnw--43" target="cV-6C2v09F7NOIxWOnw--39">
          <mxGeometry relative="1" as="geometry" />
        </mxCell>
        <mxCell id="cV-6C2v09F7NOIxWOnw--43" value="12" style="ellipse;whiteSpace=wrap;html=1;fontFamily=Times New Roman;fontSize=19;fontColor=default;" vertex="1" parent="cV-6C2v09F7NOIxWOnw--56">
          <mxGeometry x="50" y="50.5" width="40" height="40" as="geometry" />
        </mxCell>
        <mxCell id="cV-6C2v09F7NOIxWOnw--47" style="edgeStyle=none;shape=connector;rounded=0;orthogonalLoop=1;jettySize=auto;html=1;exitX=0;exitY=1;exitDx=0;exitDy=0;entryX=1;entryY=0;entryDx=0;entryDy=0;labelBackgroundColor=default;strokeColor=default;align=center;verticalAlign=middle;fontFamily=Helvetica;fontSize=11;fontColor=default;endArrow=none;endFill=0;" edge="1" parent="cV-6C2v09F7NOIxWOnw--56" source="cV-6C2v09F7NOIxWOnw--44" target="cV-6C2v09F7NOIxWOnw--43">
          <mxGeometry relative="1" as="geometry" />
        </mxCell>
        <mxCell id="cV-6C2v09F7NOIxWOnw--48" style="edgeStyle=none;shape=connector;rounded=0;orthogonalLoop=1;jettySize=auto;html=1;exitX=1;exitY=1;exitDx=0;exitDy=0;entryX=0;entryY=0;entryDx=0;entryDy=0;labelBackgroundColor=default;strokeColor=default;align=center;verticalAlign=middle;fontFamily=Helvetica;fontSize=11;fontColor=default;endArrow=none;endFill=0;" edge="1" parent="cV-6C2v09F7NOIxWOnw--56" source="cV-6C2v09F7NOIxWOnw--44" target="cV-6C2v09F7NOIxWOnw--36">
          <mxGeometry relative="1" as="geometry" />
        </mxCell>
        <mxCell id="cV-6C2v09F7NOIxWOnw--44" value="18" style="ellipse;whiteSpace=wrap;html=1;fontFamily=Times New Roman;fontSize=19;fontColor=default;" vertex="1" parent="cV-6C2v09F7NOIxWOnw--56">
          <mxGeometry x="150" width="40" height="40" as="geometry" />
        </mxCell>
        <mxCell id="cV-6C2v09F7NOIxWOnw--79" value="" style="group" vertex="1" connectable="0" parent="1">
          <mxGeometry x="-300" y="609" width="365" height="191" as="geometry" />
        </mxCell>
        <mxCell id="cV-6C2v09F7NOIxWOnw--80" value="35" style="ellipse;whiteSpace=wrap;html=1;fontFamily=Times New Roman;fontSize=19;fontColor=default;" vertex="1" parent="cV-6C2v09F7NOIxWOnw--79">
          <mxGeometry x="325" y="151" width="40" height="40" as="geometry" />
        </mxCell>
        <mxCell id="cV-6C2v09F7NOIxWOnw--83" style="edgeStyle=none;shape=connector;rounded=0;orthogonalLoop=1;jettySize=auto;html=1;exitX=1;exitY=1;exitDx=0;exitDy=0;entryX=0.5;entryY=0;entryDx=0;entryDy=0;labelBackgroundColor=default;strokeColor=default;align=center;verticalAlign=middle;fontFamily=Helvetica;fontSize=11;fontColor=default;endArrow=none;endFill=0;" edge="1" parent="cV-6C2v09F7NOIxWOnw--79" source="cV-6C2v09F7NOIxWOnw--84" target="cV-6C2v09F7NOIxWOnw--80">
          <mxGeometry relative="1" as="geometry" />
        </mxCell>
        <mxCell id="cV-6C2v09F7NOIxWOnw--84" value="31" style="ellipse;whiteSpace=wrap;html=1;fontFamily=Times New Roman;fontSize=19;fontColor=default;" vertex="1" parent="cV-6C2v09F7NOIxWOnw--79">
          <mxGeometry x="300" y="101" width="40" height="40" as="geometry" />
        </mxCell>
        <mxCell id="cV-6C2v09F7NOIxWOnw--85" value="27" style="ellipse;whiteSpace=wrap;html=1;fontFamily=Times New Roman;fontSize=19;fontColor=default;" vertex="1" parent="cV-6C2v09F7NOIxWOnw--79">
          <mxGeometry x="225" y="151" width="40" height="40" as="geometry" />
        </mxCell>
        <mxCell id="cV-6C2v09F7NOIxWOnw--86" value="24" style="ellipse;whiteSpace=wrap;html=1;fontFamily=Times New Roman;fontSize=19;fontColor=default;" vertex="1" parent="cV-6C2v09F7NOIxWOnw--79">
          <mxGeometry x="175" y="151" width="40" height="40" as="geometry" />
        </mxCell>
        <mxCell id="cV-6C2v09F7NOIxWOnw--87" style="edgeStyle=none;shape=connector;rounded=0;orthogonalLoop=1;jettySize=auto;html=1;exitX=0;exitY=1;exitDx=0;exitDy=0;entryX=0.5;entryY=0;entryDx=0;entryDy=0;labelBackgroundColor=default;strokeColor=default;align=center;verticalAlign=middle;fontFamily=Helvetica;fontSize=11;fontColor=default;endArrow=none;endFill=0;" edge="1" parent="cV-6C2v09F7NOIxWOnw--79" source="cV-6C2v09F7NOIxWOnw--89" target="cV-6C2v09F7NOIxWOnw--86">
          <mxGeometry relative="1" as="geometry" />
        </mxCell>
        <mxCell id="cV-6C2v09F7NOIxWOnw--88" style="edgeStyle=none;shape=connector;rounded=0;orthogonalLoop=1;jettySize=auto;html=1;exitX=1;exitY=1;exitDx=0;exitDy=0;entryX=0.5;entryY=0;entryDx=0;entryDy=0;labelBackgroundColor=default;strokeColor=default;align=center;verticalAlign=middle;fontFamily=Helvetica;fontSize=11;fontColor=default;endArrow=none;endFill=0;" edge="1" parent="cV-6C2v09F7NOIxWOnw--79" source="cV-6C2v09F7NOIxWOnw--89" target="cV-6C2v09F7NOIxWOnw--85">
          <mxGeometry relative="1" as="geometry" />
        </mxCell>
        <mxCell id="cV-6C2v09F7NOIxWOnw--89" value="26" style="ellipse;whiteSpace=wrap;html=1;fontFamily=Times New Roman;fontSize=19;fontColor=default;" vertex="1" parent="cV-6C2v09F7NOIxWOnw--79">
          <mxGeometry x="200" y="101" width="40" height="40" as="geometry" />
        </mxCell>
        <mxCell id="cV-6C2v09F7NOIxWOnw--90" style="edgeStyle=none;shape=connector;rounded=0;orthogonalLoop=1;jettySize=auto;html=1;exitX=0;exitY=1;exitDx=0;exitDy=0;entryX=1;entryY=0;entryDx=0;entryDy=0;labelBackgroundColor=default;strokeColor=default;align=center;verticalAlign=middle;fontFamily=Helvetica;fontSize=11;fontColor=default;endArrow=none;endFill=0;" edge="1" parent="cV-6C2v09F7NOIxWOnw--79" source="cV-6C2v09F7NOIxWOnw--92" target="cV-6C2v09F7NOIxWOnw--89">
          <mxGeometry relative="1" as="geometry" />
        </mxCell>
        <mxCell id="cV-6C2v09F7NOIxWOnw--91" style="edgeStyle=none;shape=connector;rounded=0;orthogonalLoop=1;jettySize=auto;html=1;exitX=1;exitY=1;exitDx=0;exitDy=0;entryX=0;entryY=0;entryDx=0;entryDy=0;labelBackgroundColor=default;strokeColor=default;align=center;verticalAlign=middle;fontFamily=Helvetica;fontSize=11;fontColor=default;endArrow=none;endFill=0;" edge="1" parent="cV-6C2v09F7NOIxWOnw--79" source="cV-6C2v09F7NOIxWOnw--92" target="cV-6C2v09F7NOIxWOnw--84">
          <mxGeometry relative="1" as="geometry" />
        </mxCell>
        <mxCell id="cV-6C2v09F7NOIxWOnw--92" value="29" style="ellipse;whiteSpace=wrap;html=1;fontFamily=Times New Roman;fontSize=19;fontColor=default;" vertex="1" parent="cV-6C2v09F7NOIxWOnw--79">
          <mxGeometry x="250" y="50" width="40" height="40" as="geometry" />
        </mxCell>
        <mxCell id="cV-6C2v09F7NOIxWOnw--93" value="17" style="ellipse;whiteSpace=wrap;html=1;fontFamily=Times New Roman;fontSize=19;fontColor=default;" vertex="1" parent="cV-6C2v09F7NOIxWOnw--79">
          <mxGeometry x="100" y="101.5" width="40" height="40" as="geometry" />
        </mxCell>
        <mxCell id="cV-6C2v09F7NOIxWOnw--94" value="6" style="ellipse;whiteSpace=wrap;html=1;fontFamily=Times New Roman;fontSize=19;fontColor=default;" vertex="1" parent="cV-6C2v09F7NOIxWOnw--79">
          <mxGeometry y="101.5" width="40" height="40" as="geometry" />
        </mxCell>
        <mxCell id="cV-6C2v09F7NOIxWOnw--95" style="edgeStyle=none;shape=connector;rounded=0;orthogonalLoop=1;jettySize=auto;html=1;exitX=0;exitY=1;exitDx=0;exitDy=0;entryX=1;entryY=0;entryDx=0;entryDy=0;labelBackgroundColor=default;strokeColor=default;align=center;verticalAlign=middle;fontFamily=Helvetica;fontSize=11;fontColor=default;endArrow=none;endFill=0;" edge="1" parent="cV-6C2v09F7NOIxWOnw--79" source="cV-6C2v09F7NOIxWOnw--97" target="cV-6C2v09F7NOIxWOnw--94">
          <mxGeometry relative="1" as="geometry" />
        </mxCell>
        <mxCell id="cV-6C2v09F7NOIxWOnw--96" style="edgeStyle=none;shape=connector;rounded=0;orthogonalLoop=1;jettySize=auto;html=1;exitX=1;exitY=1;exitDx=0;exitDy=0;labelBackgroundColor=default;strokeColor=default;align=center;verticalAlign=middle;fontFamily=Helvetica;fontSize=11;fontColor=default;endArrow=none;endFill=0;" edge="1" parent="cV-6C2v09F7NOIxWOnw--79" source="cV-6C2v09F7NOIxWOnw--97" target="cV-6C2v09F7NOIxWOnw--93">
          <mxGeometry relative="1" as="geometry" />
        </mxCell>
        <mxCell id="cV-6C2v09F7NOIxWOnw--97" value="12" style="ellipse;whiteSpace=wrap;html=1;fontFamily=Times New Roman;fontSize=19;fontColor=default;" vertex="1" parent="cV-6C2v09F7NOIxWOnw--79">
          <mxGeometry x="50" y="50.5" width="40" height="40" as="geometry" />
        </mxCell>
        <mxCell id="cV-6C2v09F7NOIxWOnw--98" style="edgeStyle=none;shape=connector;rounded=0;orthogonalLoop=1;jettySize=auto;html=1;exitX=0;exitY=1;exitDx=0;exitDy=0;entryX=1;entryY=0;entryDx=0;entryDy=0;labelBackgroundColor=default;strokeColor=default;align=center;verticalAlign=middle;fontFamily=Helvetica;fontSize=11;fontColor=default;endArrow=none;endFill=0;" edge="1" parent="cV-6C2v09F7NOIxWOnw--79" source="cV-6C2v09F7NOIxWOnw--100" target="cV-6C2v09F7NOIxWOnw--97">
          <mxGeometry relative="1" as="geometry" />
        </mxCell>
        <mxCell id="cV-6C2v09F7NOIxWOnw--99" style="edgeStyle=none;shape=connector;rounded=0;orthogonalLoop=1;jettySize=auto;html=1;exitX=1;exitY=1;exitDx=0;exitDy=0;entryX=0;entryY=0;entryDx=0;entryDy=0;labelBackgroundColor=default;strokeColor=default;align=center;verticalAlign=middle;fontFamily=Helvetica;fontSize=11;fontColor=default;endArrow=none;endFill=0;" edge="1" parent="cV-6C2v09F7NOIxWOnw--79" source="cV-6C2v09F7NOIxWOnw--100" target="cV-6C2v09F7NOIxWOnw--92">
          <mxGeometry relative="1" as="geometry" />
        </mxCell>
        <mxCell id="cV-6C2v09F7NOIxWOnw--100" value="18" style="ellipse;whiteSpace=wrap;html=1;fontFamily=Times New Roman;fontSize=19;fontColor=default;" vertex="1" parent="cV-6C2v09F7NOIxWOnw--79">
          <mxGeometry x="150" width="40" height="40" as="geometry" />
        </mxCell>
        <mxCell id="cV-6C2v09F7NOIxWOnw--101" value="38" style="ellipse;whiteSpace=wrap;html=1;fontFamily=Times New Roman;fontSize=19;fontColor=default;" vertex="1" parent="1">
          <mxGeometry x="50" y="810" width="40" height="40" as="geometry" />
        </mxCell>
        <mxCell id="cV-6C2v09F7NOIxWOnw--102" style="edgeStyle=none;shape=connector;rounded=0;orthogonalLoop=1;jettySize=auto;html=1;exitX=1;exitY=1;exitDx=0;exitDy=0;entryX=0.5;entryY=0;entryDx=0;entryDy=0;labelBackgroundColor=default;strokeColor=default;align=center;verticalAlign=middle;fontFamily=Helvetica;fontSize=11;fontColor=default;endArrow=none;endFill=0;" edge="1" parent="1" source="cV-6C2v09F7NOIxWOnw--80" target="cV-6C2v09F7NOIxWOnw--101">
          <mxGeometry relative="1" as="geometry" />
        </mxCell>
        <mxCell id="cV-6C2v09F7NOIxWOnw--103" value="" style="endArrow=classic;html=1;rounded=0;labelBackgroundColor=default;strokeColor=default;align=center;verticalAlign=middle;fontFamily=Times New Roman;fontSize=19;fontColor=default;shape=connector;edgeStyle=none;" edge="1" parent="1">
          <mxGeometry width="50" height="50" relative="1" as="geometry">
            <mxPoint x="65" y="740" as="sourcePoint" />
            <mxPoint x="185" y="740" as="targetPoint" />
          </mxGeometry>
        </mxCell>
        <mxCell id="cV-6C2v09F7NOIxWOnw--104" value="&lt;font face=&quot;SimSun&quot;&gt;单旋转后&lt;/font&gt;" style="text;html=1;align=center;verticalAlign=middle;resizable=0;points=[];autosize=1;strokeColor=none;fillColor=none;fontSize=19;fontFamily=Times New Roman;fontColor=default;" vertex="1" parent="1">
          <mxGeometry x="75" y="700" width="100" height="40" as="geometry" />
        </mxCell>
      </root>
    </mxGraphModel>
  </diagram>
</mxfile>
